<svg width="31" height="31" viewBox="0 0 31 31" fill="none" xmlns="http://www.w3.org/2000/svg">
<path d="M4.44444 12.3077C3.62963 12.3077 2.97037 13 2.97037 13.8462C2.97037 14.6923 3.62963 15.3846 4.44444 15.3846C5.25926 15.3846 5.92593 14.6923 5.92593 13.8462C5.92593 13 5.25926 12.3077 4.44444 12.3077ZM0 0V1.53846H1.48148L4.14815 7.37692L3.14815 9.26154C3.02963 9.47692 2.96296 9.73077 2.96296 10C2.96296 10.8462 3.62963 11.5385 4.44444 11.5385H13.3333V10H4.75556C4.65185 10 4.57037 9.91538 4.57037 9.80769L4.59259 9.71538L5.25926 8.46154H10.7778C11.3333 8.46154 11.8222 8.14615 12.0741 7.66923L14.7259 2.67692C14.7852 2.56923 14.8148 2.43846 14.8148 2.30769C14.8148 1.88462 14.4815 1.53846 14.0741 1.53846H3.11852L2.42222 0H0ZM11.8519 12.3077C11.037 12.3077 10.3778 13 10.3778 13.8462C10.3778 14.6923 11.037 15.3846 11.8519 15.3846C12.6667 15.3846 13.3333 14.6923 13.3333 13.8462C13.3333 13 12.6667 12.3077 11.8519 12.3077Z" transform="translate(13.8364 1.93195)" fill="#979797"/>
<path d="M6.66667 18.4615C5.44444 18.4615 4.45556 19.5 4.45556 20.7692C4.45556 22.0385 5.44444 23.0769 6.66667 23.0769C7.88889 23.0769 8.88889 22.0385 8.88889 20.7692C8.88889 19.5 7.88889 18.4615 6.66667 18.4615ZM0 0V2.30769H2.22222L6.22222 11.0654L4.72222 13.8923C4.54444 14.2154 4.44444 14.5962 4.44444 15C4.44444 16.2692 5.44444 17.3077 6.66667 17.3077H20V15H7.13333C6.97778 15 6.85556 14.8731 6.85556 14.7115L6.88889 14.5731L7.88889 12.6923H16.1667C17 12.6923 17.7333 12.2192 18.1111 11.5038L22.0889 4.01538C22.1778 3.85385 22.2222 3.65769 22.2222 3.46154C22.2222 2.82692 21.7222 2.30769 21.1111 2.30769H4.67778L3.63333 0H0ZM17.7778 18.4615C16.5556 18.4615 15.5667 19.5 15.5667 20.7692C15.5667 22.0385 16.5556 23.0769 17.7778 23.0769C19 23.0769 20 22.0385 20 20.7692C20 19.5 19 18.4615 17.7778 18.4615Z" transform="translate(1.98486 5.00885)" fill="black"/>
</svg>
