<svg width="7" height="10" viewBox="0 0 7 10" version="1.1" xmlns="http://www.w3.org/2000/svg" xmlns:xlink="http://www.w3.org/1999/xlink">
<g id="Canvas" fill="none">
<g id="rupee-sign-icon">
<path d="M 6.01562 2.125L 4.58984 2.125C 4.70703 2.32031 4.78516 2.53516 4.86328 2.75L 6.01562 2.75C 6.07422 2.75 6.13281 2.78906 6.17188 2.82812C 6.21094 2.86719 6.25 2.92578 6.25 2.98438L 6.25 3.76562C 6.25 3.84375 6.21094 3.90234 6.17188 3.94141C 6.13281 3.98047 6.07422 4 6.01562 4L 4.98047 4C 4.90234 4.74219 4.62891 5.32812 4.14062 5.77734C 3.63281 6.24609 3.02734 6.48047 2.28516 6.5L 5.23438 9.21484C 5.3125 9.29297 5.33203 9.39062 5.29297 9.48828C 5.25391 9.58594 5.17578 9.625 5.07812 9.625L 3.45703 9.625C 3.37891 9.625 3.33984 9.60547 3.30078 9.56641L 0.078125 6.57812C 0.0195312 6.53906 0 6.5 0 6.42188L 0 5.38672C 0 5.32812 0.0195312 5.26953 0.0585938 5.23047C 0.0976562 5.19141 0.15625 5.15234 0.234375 5.15234L 1.875 5.15234C 2.26562 5.15234 2.59766 5.05469 2.85156 4.83984C 3.10547 4.64453 3.26172 4.35156 3.33984 4L 0.234375 4C 0.15625 4 0.0976562 3.98047 0.0585938 3.94141C 0.0195312 3.90234 0 3.84375 0 3.76562L 0 2.98438C 0 2.92578 0.0195312 2.86719 0.0585938 2.82812C 0.0976562 2.78906 0.15625 2.75 0.234375 2.75L 3.08594 2.75C 2.8125 2.39844 2.42188 2.22266 1.89453 2.22266L 0.234375 2.22266C 0.15625 2.22266 0.0976562 2.20312 0.0585938 2.16406C 0.0195312 2.125 0 2.06641 0 1.98828L 0 1.10938C 0 1.05078 0.0195312 0.992188 0.0585938 0.953125C 0.0976562 0.914062 0.15625 0.875 0.234375 0.875L 6.01562 0.875C 6.07422 0.875 6.13281 0.914062 6.17188 0.953125C 6.21094 0.992188 6.25 1.05078 6.25 1.10938L 6.25 1.89062C 6.25 1.96875 6.21094 2.02734 6.17188 2.06641C 6.13281 2.10547 6.07422 2.125 6.01562 2.125Z" fill="white"/>
</g>
</g>
</svg>

