<svg width="26" height="19" viewBox="0 0 26 19" version="1.1" xmlns="http://www.w3.org/2000/svg" xmlns:xlink="http://www.w3.org/1999/xlink">
<g id="Canvas" fill="none">
<g id="scanning-barcode-icon">
<g id="Vector">
<path d="M 21.8947 11.6561L 21.8947 4.8333L 24.2058 4.8333C 24.528 4.8333 24.7891 4.57685 24.7891 4.2605C 24.7891 3.94416 24.528 3.68771 24.2058 3.68771L 21.8947 3.68771L 21.8947 0.572796C 21.8947 0.256449 21.6335 -5.66029e-08 21.3114 -5.66029e-08C 20.9893 -5.66029e-08 20.7282 0.256449 20.7282 0.572796L 20.7282 3.68771L 19.2582 3.68771L 19.2582 0.572796C 19.2582 0.256449 18.9971 -5.66029e-08 18.675 -5.66029e-08C 18.3528 -5.66029e-08 18.0917 0.256449 18.0917 0.572796L 18.0917 3.68771L 16.5622 3.68771L 16.5622 0.572796C 16.5622 0.256449 16.3011 -5.66029e-08 15.979 -5.66029e-08C 15.6569 -5.66029e-08 15.3958 0.256449 15.3958 0.572796L 15.3958 3.68771L 14.5865 3.68771L 14.5865 0.572796C 14.5865 0.256449 14.3254 -5.66029e-08 14.0033 -5.66029e-08C 13.6811 -5.66029e-08 13.42 0.256449 13.42 0.572796L 13.42 3.68771L 12.2853 3.68771L 12.2853 0.572796C 12.2853 0.256449 12.0241 -5.66029e-08 11.702 -5.66029e-08C 11.3799 -5.66029e-08 11.1188 0.256449 11.1188 0.572796L 11.1188 3.68771L 10.2919 3.68771L 10.2919 0.572796C 10.2919 0.256449 10.0308 -5.66029e-08 9.70867 -5.66029e-08C 9.38655 -5.66029e-08 9.12543 0.256449 9.12543 0.572796L 9.12543 3.68771L 7.98861 3.68771L 7.98861 0.572796C 7.98861 0.256449 7.72748 -5.66029e-08 7.40537 -5.66029e-08C 7.08325 -5.66029e-08 6.82213 0.256449 6.82213 0.572796L 6.82213 3.68771L 5.90222 3.68771L 5.90222 0.572796C 5.90222 0.256449 5.6411 -5.66029e-08 5.31898 -5.66029e-08C 4.99687 -5.66029e-08 4.73574 0.256449 4.73574 0.572796L 4.73574 3.68771L 4.11612 3.68771L 4.11612 0.572796C 4.11612 0.256449 3.85499 -5.66029e-08 3.53288 -5.66029e-08C 3.21076 -5.66029e-08 2.94964 0.256449 2.94964 0.572796L 2.94964 3.68771L 0.58324 3.68771C 0.261125 3.68771 -3.1784e-09 3.94416 -3.1784e-09 4.2605C -3.1784e-09 4.57685 0.261125 4.8333 0.58324 4.8333L 2.94964 4.8333L 2.94964 11.6561C 2.94964 11.9725 3.21076 12.2289 3.53288 12.2289C 3.85499 12.2289 4.11612 11.9725 4.11612 11.6561L 4.11612 4.8333L 4.73569 4.8333L 4.73569 8.86201C 4.73569 9.17836 4.99681 9.43481 5.31893 9.43481C 5.64104 9.43481 5.90217 9.17836 5.90217 8.86201L 5.90217 4.8333L 6.82207 4.8333L 6.82207 8.86201C 6.82207 9.17836 7.0832 9.43481 7.40531 9.43481C 7.72743 9.43481 7.98855 9.17836 7.98855 8.86201L 7.98855 4.8333L 9.12537 4.8333L 9.12537 8.86201C 9.12537 9.17836 9.3865 9.43481 9.70861 9.43481C 10.0307 9.43481 10.2919 9.17836 10.2919 8.86201L 10.2919 4.8333L 11.1187 4.8333L 11.1187 8.86201C 11.1187 9.17836 11.3798 9.43481 11.702 9.43481C 12.0241 9.43481 12.2852 9.17836 12.2852 8.86201L 12.2852 4.8333L 13.42 4.8333L 13.42 8.86201C 13.42 9.17836 13.6811 9.43481 14.0032 9.43481C 14.3253 9.43481 14.5864 9.17836 14.5864 8.86201L 14.5864 4.8333L 15.3957 4.8333L 15.3957 8.86201C 15.3957 9.17836 15.6568 9.43481 15.9789 9.43481C 16.3011 9.43481 16.5622 9.17836 16.5622 8.86201L 16.5622 4.8333L 18.0917 4.8333L 18.0917 8.86201C 18.0917 9.17836 18.3528 9.43481 18.6749 9.43481C 18.997 9.43481 19.2581 9.17836 19.2581 8.86201L 19.2581 4.8333L 20.7281 4.8333L 20.7281 11.6561C 20.7281 11.9725 20.9892 12.2289 21.3114 12.2289C 21.6335 12.2289 21.8947 11.9725 21.8947 11.6561Z" transform="translate(0.343552 3.33972)" fill="#343434"/>
</g>
<g id="Vector_2">
<path d="M 0.58324 4.5648C 0.905355 4.5648 1.16648 4.30835 1.16648 3.992L 1.16648 1.65696C 1.16648 1.37498 1.40005 1.14559 1.68717 1.14559L 3.61814 1.14559C 3.94026 1.14559 4.20138 0.889142 4.20138 0.572795C 4.20138 0.256449 3.94026 -9.02259e-08 3.61814 -9.02259e-08L 1.68717 -9.02259e-08C 0.756823 -5.46422e-05 0 0.74327 0 1.65696L 0 3.992C 0 4.30829 0.261125 4.5648 0.58324 4.5648Z" fill="#343434"/>
</g>
<g id="Vector_3">
<path d="M 3.61814 3.4192L 1.68717 3.4192C 1.40005 3.4192 1.16648 3.18981 1.16648 2.90784L 1.16648 0.572796C 1.16648 0.256449 0.905355 6.52599e-07 0.58324 6.52599e-07C 0.261125 6.52599e-07 0 0.256449 0 0.572796L 0 2.90784C 0 3.82147 0.756823 4.5648 1.68717 4.5648L 3.61814 4.5648C 3.94026 4.5648 4.20138 4.30835 4.20138 3.992C 4.20138 3.67565 3.94026 3.4192 3.61814 3.4192Z" transform="translate(0 14.4352)" fill="#343434"/>
</g>
<g id="Vector_4">
<path d="M 2.51426 -9.32284e-08L 0.583241 -9.32284e-08C 0.261125 -9.32284e-08 6.50937e-07 0.256449 6.50937e-07 0.572795C 6.50937e-07 0.889142 0.261125 1.14559 0.583241 1.14559L 2.51426 1.14559C 2.80138 1.14559 3.03496 1.37498 3.03496 1.65696L 3.03496 3.992C 3.03496 4.30835 3.29608 4.5648 3.6182 4.5648C 3.94031 4.5648 4.20144 4.30835 4.20144 3.992L 4.20144 1.65696C 4.20144 0.743324 3.44456 -9.32284e-08 2.51426 -9.32284e-08Z" transform="translate(21.7986 0)" fill="#343434"/>
</g>
<g id="Vector_5">
<path d="M 3.6182 6.52599e-07C 3.29608 6.52599e-07 3.03496 0.256449 3.03496 0.572796L 3.03496 2.90784C 3.03496 3.18981 2.80138 3.4192 2.51426 3.4192L 0.583241 3.4192C 0.261125 3.4192 6.50937e-07 3.67565 6.50937e-07 3.992C 6.50937e-07 4.30835 0.261125 4.5648 0.583241 4.5648L 2.51426 4.5648C 3.44456 4.5648 4.20144 3.82147 4.20144 2.90784L 4.20144 0.572796C 4.20144 0.256449 3.94031 6.52599e-07 3.6182 6.52599e-07Z" transform="translate(21.7986 14.4352)" fill="#343434"/>
</g>
<g id="Vector_6">
<path d="M 13.7472 3.06322e-07L 0.58324 3.06322e-07C 0.261125 3.06322e-07 7.45866e-08 0.256449 7.45866e-08 0.572796C 7.45866e-08 0.889142 0.261125 1.14559 0.58324 1.14559L 13.7471 1.14559C 14.0692 1.14559 14.3304 0.889142 14.3304 0.572796C 14.3304 0.256449 14.0693 3.06322e-07 13.7472 3.06322e-07Z" transform="translate(5.30843 14.5283)" fill="#343434"/>
</g>
</g>
</g>
</svg>

