<svg width="20" height="20" viewBox="0 0 20 20" version="1.1" xmlns="http://www.w3.org/2000/svg" xmlns:xlink="http://www.w3.org/1999/xlink">
<g id="Canvas" fill="none">
<g id="shopping-cart-icon">
<g id="Vector">
<path d="M 6 16C 4.9 16 4.01 16.9 4.01 18C 4.01 19.1 4.9 20 6 20C 7.1 20 8 19.1 8 18C 8 16.9 7.1 16 6 16ZM 0 0L 0 2L 2 2L 5.6 9.59L 4.25 12.04C 4.09 12.32 4 12.65 4 13C 4 14.1 4.9 15 6 15L 18 15L 18 13L 6.42 13C 6.28 13 6.17 12.89 6.17 12.75L 6.2 12.63L 7.1 11L 14.55 11C 15.3 11 15.96 10.59 16.3 9.97L 19.88 3.48C 19.96 3.34 20 3.17 20 3C 20 2.45 19.55 2 19 2L 4.21 2L 3.27 0L 0 0ZM 16 16C 14.9 16 14.01 16.9 14.01 18C 14.01 19.1 14.9 20 16 20C 17.1 20 18 19.1 18 18C 18 16.9 17.1 16 16 16Z" fill="white"/>
</g>
</g>
</g>
</svg>

